# xmcd
#
# Track frame offsets:
#       150
#       22631
#       65883
#       99699
#       132338
#       171181
#
# Disc length: 2780 seconds
#
# Revision: 3
# Processed by: cddbd v1.5.2PL0 Copyright (c) Steve Scherf et al.
# Submitted via: WaveLab 4.01
#
DISCID=4c0ada06
DTITLE=Horace Silver - The Cape Verdean Blues
DYEAR=2004
DGENRE=
TTITLE0=Horace Silver-The cape verdean blues
TTITLE1=Horace Silver- The african queen
TTITLE2=Horace Silver- Pretty eyes
TTITLE3=Horace Silver- Nutville
TTITLE4=Horace Silver- Bonita
TTITLE5=Horace Silver- Mo Joe
EXTD=
EXTT0=
EXTT1=
EXTT2=
EXTT3=
EXTT4=
EXTT5=
PLAYORDER=
